<svg id="Layer_1" data-name="Layer 1" xmlns="http://www.w3.org/2000/svg" viewBox="0 0 370.5 494.95"><defs><style>.cls-1{fill:#00ffa3;}</style></defs><path class="cls-1" d="M177.22,311.8c-45.43,0-88.89-14.23-121.87-40.87C19.66,242.09,0,202.68,0,159.94,0,107,31.58,53.75,80.45,24.31c32.84-19.78,102.22-45.4,198,5.25a33.41,33.41,0,1,1-31.25,59.06c-63.35-33.51-106.87-22.34-132.23-7.07-28.32,17.06-48.11,49.3-48.11,78.39,0,22.15,10.84,43.11,30.53,59,28.58,23.1,70.56,31.53,112.29,22.56a33.41,33.41,0,1,1,14,65.33A221.23,221.23,0,0,1,177.22,311.8Z"/><path class="cls-1" d="M110.66,495a33.41,33.41,0,0,1-33.42-33.41v-46.4c0-19.93,9.3-39.94,24.25-52.23,12.89-10.59,28.67-14.69,44.42-11.58,55,10.89,102.71,3.83,130.93-19.35,17.8-14.63,26.83-34.75,26.83-59.8s-10.27-47.12-28.93-62.53c-27.2-22.44-69.7-29.49-119.7-19.84a33.41,33.41,0,1,1-12.66-65.61c69.92-13.5,132-1.45,174.9,33.92C351.59,186.45,370.5,227,370.5,272.18c0,44.72-18.2,84.29-51.25,111.44-42.19,34.65-104.09,47-175.19,35.28v42.64A33.41,33.41,0,0,1,110.66,495Z"/></svg>